<?xml version="1.0" standalone="no"?>
<!DOCTYPE svg PUBLIC "-//W3C//DTD SVG 20010904//EN"
 "http://www.w3.org/TR/2001/REC-SVG-20010904/DTD/svg10.dtd">
<svg version="1.0" xmlns="http://www.w3.org/2000/svg"
 width="56.000000pt" height="96.000000pt" viewBox="0 0 56.000000 96.000000"
 preserveAspectRatio="xMidYMid meet">

<g transform="translate(0.000000,96.000000) scale(0.100000,-0.100000)"
fill="#000000" stroke="none">
<path d="M100 937 c-76 -18 -102 -36 -96 -67 9 -44 9 -84 1 -122 -5 -26 -2
-52 9 -85 10 -28 27 -159 41 -318 14 -148 27 -275 30 -282 2 -7 19 -20 37 -30
48 -26 268 -26 316 0 18 10 35 23 37 30 3 7 16 132 29 280 15 157 32 290 42
322 13 41 15 63 8 87 -5 18 -7 56 -3 83 11 89 -23 105 -246 111 -100 2 -168
-1 -205 -9z m391 -26 l37 -11 4 -98 c3 -64 1 -110 -8 -137 -9 -28 -64 -542
-64 -599 0 -30 -264 -44 -327 -17 -18 7 -33 15 -33 17 0 55 -54 561 -64 593
-8 30 -11 79 -8 143 l4 98 37 9 c20 5 47 12 61 15 44 8 324 -2 361 -13z"/>
</g>
</svg>
